<?xml version="1.0" encoding="UTF-8"?>
<svg width="245.32" height="512" enable-background="new 0 0 512.015 512.015" version="1.1" viewBox="0 0 245.33 512.02" xmlns="http://www.w3.org/2000/svg">
 <g transform="translate(-140.01)">
  <path d="m148.65 185.67c-5.4 6.778-8.638 15.35-8.638 24.67v29.334c0 9.319 3.238 17.892 8.638 24.67-5.4 6.778-8.638 15.35-8.638 24.67v29.334c0 9.319 3.238 17.892 8.638 24.67-5.4 6.778-8.638 15.35-8.638 24.67v144.33h245.33v-144.33c0-9.319-3.238-17.892-8.638-24.67 5.4-6.778 8.638-15.35 8.638-24.67v-29.334c0-9.319-3.238-17.892-8.638-24.67 5.4-6.778 8.638-15.35 8.638-24.67v-29.334c0-9.319-3.238-17.892-8.638-24.67v-10.001h-228.05z" fill="#dff5ff"/>
  <path d="m385.34 210.34c0-9.319-3.238-17.892-8.638-24.67v-10.001h-114.02v336.34h122.66v-144.33c0-9.319-3.238-17.892-8.638-24.67 5.4-6.778 8.638-15.35 8.638-24.67v-29.334c0-9.319-3.238-17.892-8.638-24.67 5.4-6.778 8.638-15.35 8.638-24.67z" fill="#dff5ff"/>
  <path d="m196.13 0h133.08v90.003h-133.08z" fill="#077ccc"/>
  <path d="m262.67 0h66.542v90.003h-66.542z" fill="#0556b2"/>
  <path d="m385.34 161v-44.878l-56.12-56.12h-133.08l-56.12 56.12v44.878c0 9.319 3.238 17.892 8.638 24.67h228.05c5.399-6.778 8.637-15.351 8.637-24.67z" fill="#dff5ff"/>
 </g>
</svg>
