<?xml version="1.0" encoding="UTF-8" standalone="no"?>
<svg
   xmlns:dc="http://purl.org/dc/elements/1.1/"
   xmlns:cc="http://creativecommons.org/ns#"
   xmlns:rdf="http://www.w3.org/1999/02/22-rdf-syntax-ns#"
   xmlns:svg="http://www.w3.org/2000/svg"
   xmlns="http://www.w3.org/2000/svg"
   version="1.1"
   width="512"
   viewBox="0 0 496.642 496.642"
   height="512"
   enable-background="new 0 0 496.642 496.642"
   id="Capa_1">
  <metadata
     id="metadata4592">
    <rdf:RDF>
      <cc:Work
         rdf:about="">
        <dc:format>image/svg+xml</dc:format>
        <dc:type
           rdf:resource="http://purl.org/dc/dcmitype/StillImage" />
        <dc:title></dc:title>
      </cc:Work>
    </rdf:RDF>
  </metadata>
  <defs
     id="defs4590" />
  <g
     id="XMLID_187_">
    <path
       d="m 366.384,138.902 -77.73,-50.69 -0.19,-59.49 h -88.35 v 59.49 l -77.73,50.69 c -9.98,6.51 -18,15.28 -23.59,25.39 l 10.039,33.702 h 251.764 l 20.437,-46.392 h 0.01 c -4.23,-4.82 -9.15,-9.11 -14.66,-12.7 z"
       id="path4556"
       style="fill:#edf9fa" />
  </g>
  <path
     d="M 288.639,83.353 288.512,43.62 288.464,28.721 h -51.58 -36.77 v 59.49 l -77.73,50.69 c -9.98,6.51 -18,15.28 -23.59,25.39 l 10.039,33.702 h 25.265 v -1.39 c 0,-11.079 3.16,-21.771 8.95,-31.17 5.59,-9.084 13.61,-16.964 23.59,-22.814 l 74.521,-43.666 c 1.988,-1.165 3.209,-3.296 3.209,-5.6 V 91.67 c 0,-4.594 3.724,-8.318 8.318,-8.318 h 35.953 z"
     id="path4559"
     style="fill:#e1f5f8" />
  <path
     d="m 398.924,198.982 v 263.58 c 0,18.82 -15.26,34.08 -34.08,34.08 h -240.92 c -18.82,0 -34.079998,-15.26 -34.079998,-34.08 v -263.58 c 0,-12.33 3.16,-24.23 8.95,-34.69 l 22.369998,-5.53 c 38.82,-9.6 79.34,-9.97 118.33,-1.08 18.72,4.27 37.81,6.4 56.9,6.4 18.38,0 36.77,-1.98 54.83,-5.94 l 29.81,-6.54 h 0.01 c 11.38,12.93 17.88,29.72 17.88,47.38 z"
     id="path4561"
     style="fill:#edf9fa;fill-opacity:1" />
  <path
     style="fill:#edf9fa;fill-opacity:1"
     id="path4563"
     d="m 138.545,274.563 c 1.741,-1.252 3.875,-1.989 6.184,-1.989 h 254.195 v -73.592 c 0,-0.559 -0.025,-1.115 -0.039,-1.672 H 143.151 c -4.795,0 -8.404,-4.387 -7.455,-9.086 1.481,-7.33 3.967,-17.294 7.352,-22.788 2.746,-4.462 6.103,-8.658 9.965,-12.441 -10.69,1.245 -21.344,3.17 -31.849,5.768 l -22.369998,5.53 c -5.79,10.46 -8.95,22.36 -8.95,34.69 v 263.58 c 0,18.822 15.257998,34.08 34.079998,34.08 h 240.92 c 18.317,0 33.256,-14.457 34.042,-32.58 H 168.179 c -15.221,0 -28.104,-8.971 -32.478,-21.347 -0.674,-1.907 0.802,-3.898 2.824,-3.898 H 398.924 V 363.553 H 145.037 c -3.045,0 -4.142,-4.074 -1.481,-5.555 2.633,-1.465 5.664,-2.301 8.892,-2.301 H 398.924 V 280.43 H 140.445 c -3.14,0 -4.45,-4.034 -1.9,-5.867 z" />
  <g
     style="fill:#000000;fill-opacity:0"
     id="g4715">
    <path
       style="fill:#000000;fill-opacity:0"
       id="path4565"
       d="M 403.197,257.574 H 93.445 c -7.022,0 -12.715,-5.693 -12.715,-12.715 v -19.835 c 0,-7.022 5.693,-12.715 12.715,-12.715 h 309.751 c 7.022,0 12.715,5.693 12.715,12.715 v 19.835 c 0,7.022 -5.692,12.715 -12.714,12.715 z" />
    <path
       style="fill:#000000;fill-opacity:0"
       id="path4567"
       d="M 403.197,340.695 H 93.445 c -7.022,0 -12.715,-5.693 -12.715,-12.715 v -19.835 c 0,-7.022 5.693,-12.715 12.715,-12.715 h 309.751 c 7.022,0 12.715,5.693 12.715,12.715 v 19.835 c 0,7.022 -5.692,12.715 -12.714,12.715 z" />
    <path
       style="fill:#000000;fill-opacity:0"
       id="path4569"
       d="M 403.197,423.816 H 93.445 c -7.022,0 -12.715,-5.693 -12.715,-12.715 v -19.835 c 0,-7.022 5.693,-12.715 12.715,-12.715 h 309.751 c 7.022,0 12.715,5.693 12.715,12.715 v 19.835 c 0,7.022 -5.692,12.715 -12.714,12.715 z" />
  </g>
  <path
     d="m 289.993,68.353 h -91.218 c -8.326,0 -15.075,-6.749 -15.075,-15.075 V 15.075 C 183.7,6.749 190.449,0 198.775,0 h 91.218 c 8.326,0 15.075,6.749 15.075,15.075 v 38.202 c 0,8.327 -6.749,15.076 -15.075,15.076 z"
     id="path4571"
     style="fill:#077ccc;fill-opacity:1" />
  <g
     style="fill:#0556b2;fill-opacity:1"
     id="g4581">
    <path
       style="fill:#0556b2;fill-opacity:1"
       id="path4575"
       d="m 236.884,0 h 15 v 68.353 h -15 z" />
    <path
       style="fill:#0556b2;fill-opacity:1"
       id="path4577"
       d="m 206.542,0 h 15 v 68.353 h -15 z" />
    <path
       style="fill:#0556b2;fill-opacity:1"
       id="path4579"
       d="m 267.226,0 h 15 v 68.353 h -15 z" />
  </g>
</svg>
